<svg width="25" height="26" viewBox="0 0 25 26" fill="none" xmlns="http://www.w3.org/2000/svg">
<path d="M18.693 8.73175C19.0482 8.30886 18.9934 7.67808 18.5705 7.32285C18.1476 6.96763 17.5168 7.02248 17.1616 7.44536L18.693 8.73175ZM10.0279 17.4926L9.28459 18.1616C9.47821 18.3767 9.75556 18.4974 10.045 18.4925C10.3344 18.4875 10.6074 18.3574 10.7936 18.1358L10.0279 17.4926ZM7.38572 13.062C7.01626 12.6515 6.38397 12.6182 5.97346 12.9877C5.56295 13.3571 5.52967 13.9894 5.89913 14.3999L7.38572 13.062ZM24.5697 12.7907C24.5697 6.00825 19.0673 0.505859 12.2848 0.505859V2.50586C17.9627 2.50586 22.5697 7.11282 22.5697 12.7907H24.5697ZM12.2848 0.505859C5.50239 0.505859 0 6.00825 0 12.7907H2C2 7.11282 6.60696 2.50586 12.2848 2.50586V0.505859ZM0 12.7907C0 19.5732 5.50239 25.0756 12.2848 25.0756V23.0756C6.60696 23.0756 2 18.4686 2 12.7907H0ZM12.2848 25.0756C19.0673 25.0756 24.5697 19.5732 24.5697 12.7907H22.5697C22.5697 18.4686 17.9627 23.0756 12.2848 23.0756V25.0756ZM17.1616 7.44536L9.26217 16.8494L10.7936 18.1358L18.693 8.73175L17.1616 7.44536ZM10.7712 16.8236L7.38572 13.062L5.89913 14.3999L9.28459 18.1616L10.7712 16.8236Z" fill="#31C65B"/>
</svg>
